# xmcd CD database file
# Copyright (C) 1997 Ti Kan
#
# Track frame offsets:
#  182
#  16147
#  34890
#  50245
#  66775
#  79802
#  98725
#  113400
#  128475
#  142437
#
# Disc length: 2122 seconds
#
# Revision: 1
# Processed by: cddbd v1.4b41PL1 Copyright (c) Steve Scherf et al.
# Submitted via: CDWizzard Release:4.30
#
DISCID=8508480a
DTITLE=Greg Holland - Exception To The Rule
DYEAR=1900
DGENRE=
TTITLE0=Primitive Man
TTITLE1=I Feel Forever
TTITLE2=Divine Intervention
TTITLE3=Exception To The Rule
TTITLE4=What's A Good Ol' Boy To Do
TTITLE5=I'm The Only Thing (I'll Hold Against You)
TTITLE6=Old Weakness (Comin' On Strong)
TTITLE7=Mama Needs Someone To Hold Her
TTITLE8=Only A Woman Knows
TTITLE9=Georgia Moon On Fire
EXTD=
EXTT0=
EXTT1=
EXTT2=
EXTT3=
EXTT4=
EXTT5=
EXTT6=
EXTT7=
EXTT8=
EXTT9=
PLAYORDER=
